<?xml version="1.0" encoding="UTF-8" standalone="no"?>
<!-- Uploaded to: SVG Repo, www.svgrepo.com, Generator: SVG Repo Mixer Tools -->

<svg
   fill="#000000"
   height="800px"
   width="800px"
   id="Layer_1"
   data-name="Layer 1"
   viewBox="0 0 16 16"
   version="1.1"
   sodipodi:docname="bashprog_concept_2.svg"
   xml:space="preserve"
   inkscape:version="1.4 (86a8ad7, 2024-10-11)"
   xmlns:inkscape="http://www.inkscape.org/namespaces/inkscape"
   xmlns:sodipodi="http://sodipodi.sourceforge.net/DTD/sodipodi-0.dtd"
   xmlns="http://www.w3.org/2000/svg"
   xmlns:svg="http://www.w3.org/2000/svg"><defs
     id="defs1" /><sodipodi:namedview
     id="namedview1"
     pagecolor="#ffffff"
     bordercolor="#000000"
     borderopacity="0.25"
     inkscape:showpageshadow="2"
     inkscape:pageopacity="0.0"
     inkscape:pagecheckerboard="0"
     inkscape:deskcolor="#d1d1d1"
     inkscape:zoom="0.83792154"
     inkscape:cx="257.7807"
     inkscape:cy="-187.96509"
     inkscape:window-width="2266"
     inkscape:window-height="1872"
     inkscape:window-x="2404"
     inkscape:window-y="25"
     inkscape:window-maximized="0"
     inkscape:current-layer="layer2" /><path
     class="cls-1"
     d="M 3.96687,7.14286 H 3.20525 C 3.5668473,5.1363341 5.1366036,3.5654097 7.14286,3.20232 V 3.974 C 5.5518514,4.3114176 4.3078625,5.5526138 3.96687,7.14286 Z M 8,2 v 1.875 c 3.675238,0 5.515138,4.4431965 2.916667,7.041667 C 8.3181965,13.515138 3.875,11.675238 3.875,8 H 2 c 0,5.345801 6.4628313,8.022019 10.242425,4.242425 C 16.022019,8.4628313 13.345801,2 8,2 Z"
     id="path1"
     sodipodi:nodetypes="cccccccsccsc"
     style="fill:#00d9e8;fill-opacity:1" /><path
     class="cls-1"
     d="M 4.1899264,9.6929917 3.5734793,10.14027 C 2.6877752,8.3038531 3.0357594,6.1104895 4.4463697,4.6383896 L 4.899555,5.2629787 C 3.8099657,6.470437 3.532015,8.2056077 4.1899264,9.6929917 Z M 4.4340399,3.1618694 5.535176,4.6794752 c 2.9746985,-2.158366 7.07326,0.3573883 6.496095,3.9865728 -0.577165,3.629184 -5.2539637,4.749355 -7.4123284,1.774656 L 3.1013368,11.54184 C 6.2407772,15.868674 13.043394,14.239336 13.882905,8.9605214 14.722419,3.6817074 8.760875,0.02242948 4.4340399,3.1618694 Z"
     id="path1-8"
     sodipodi:nodetypes="cccccccsccsc"
     style="opacity:0.932331;fill:#6074ff;fill-opacity:1" /><g
     inkscape:groupmode="layer"
     id="layer2"
     inkscape:label="Layer 1"><path
       d="M 2.585351,5.8365309 H 1.823731 C 2.1853283,3.830005 3.7550846,2.2590806 5.761341,1.8959909 v 0.77168 c -1.5910086,0.3374176 -2.8349975,1.5786138 -3.17599,3.16886 z"
       id="path1-7"
       style="stroke:#7cdbdb;stroke-opacity:1" /><g
       style="fill:none"
       id="g4"
       transform="matrix(0.38339918,0,0,0.38339918,3.3571113,3.4170373)"><path
         opacity="0.2"
         fill-rule="evenodd"
         clip-rule="evenodd"
         d="m 12,19 c 3.866,0 7,-3.134 7,-7 0,-3.86599 -3.134,-7 -7,-7 -3.86599,0 -7,3.13401 -7,7 0,3.866 3.13401,7 7,7 z m 0,3 C 17.5228,22 22,17.5228 22,12 22,6.47715 17.5228,2 12,2 6.47715,2 2,6.47715 2,12 2,17.5228 6.47715,22 12,22 Z"
         fill="#000000"
         id="path1-86"
         style="fill:#d1271b;fill-opacity:1;opacity:0.25814536" /><path
         d="m 12,22 c 5.5228,0 10,-4.4772 10,-10 h -3 c 0,3.866 -3.134,7 -7,7 z"
         fill="#000000"
         id="path2"
         style="fill:#00d9e8;fill-opacity:1" /><path
         d="M 2,12 C 2,6.47715 6.47715,2 12,2 V 5 C 8.13401,5 5,8.13401 5,12 Z"
         fill="#000000"
         id="path3"
         style="fill:#5a7afd;fill-opacity:1" /></g></g></svg>
