<?xml version="1.0" encoding="UTF-8" standalone="no"?>
<svg
   viewBox="0 0 512 512"
   version="1.1"
   id="svg38"
   sodipodi:docname="phellams-logo.svg"
   inkscape:version="1.3.2 (091e20e, 2023-11-25, custom)"
   inkscape:export-filename="..\..\..\..\..\..\Users\gsnow\Desktop\nytescript.png"
   inkscape:export-xdpi="11.632587"
   inkscape:export-ydpi="11.632587"
   xmlns:inkscape="http://www.inkscape.org/namespaces/inkscape"
   xmlns:sodipodi="http://sodipodi.sourceforge.net/DTD/sodipodi-0.dtd"
   xmlns:xlink="http://www.w3.org/1999/xlink"
   xmlns="http://www.w3.org/2000/svg"
   xmlns:svg="http://www.w3.org/2000/svg">
  <defs
     id="defs38">
    <linearGradient
       id="linearGradient48">
      <stop
         style="stop-color:#ffffff;stop-opacity:0;"
         offset="0"
         id="stop50" />
      <stop
         style="stop-color:#ffffff;stop-opacity:1;"
         offset="1"
         id="stop51" />
    </linearGradient>
    <linearGradient
       id="linearGradient48-1">
      <stop
         style="stop-color:#1b35ff;stop-opacity:0;"
         offset="0"
         id="stop49" />
      <stop
         style="stop-color:#ff8888;stop-opacity:0.49803922;"
         offset="0.5"
         id="stop52" />
      <stop
         style="stop-color:#00b5fd;stop-opacity:1;"
         offset="1"
         id="stop48" />
    </linearGradient>
    <linearGradient
       id="linearGradient38"
       inkscape:collect="always">
      <stop
         style="stop-color:#e5c8d6;stop-opacity:0;"
         offset="0"
         id="stop39" />
      <stop
         style="stop-color:#14b0ef;stop-opacity:1;"
         offset="0.96805114"
         id="stop38" />
    </linearGradient>
    <linearGradient
       inkscape:collect="always"
       xlink:href="#linearGradient38"
       id="linearGradient39"
       x1="120.437"
       y1="316.521"
       x2="496.3"
       y2="316.521"
       gradientUnits="userSpaceOnUse" />
    <linearGradient
       inkscape:collect="always"
       xlink:href="#linearGradient48-1"
       id="linearGradient49"
       x1="120.431"
       y1="256.00351"
       x2="391.569"
       y2="256.00351"
       gradientUnits="userSpaceOnUse"
       spreadMethod="pad" />
  </defs>
  <sodipodi:namedview
     id="namedview38"
     pagecolor="#ffffff"
     bordercolor="#000000"
     borderopacity="0.25"
     inkscape:showpageshadow="2"
     inkscape:pageopacity="0.0"
     inkscape:pagecheckerboard="0"
     inkscape:deskcolor="#d1d1d1"
     inkscape:zoom="0.3221341"
     inkscape:cx="-180.04924"
     inkscape:cy="-55.87735"
     inkscape:window-width="1945"
     inkscape:window-height="1457"
     inkscape:window-x="3227"
     inkscape:window-y="434"
     inkscape:window-maximized="0"
     inkscape:current-layer="svg38"
     showgrid="false" />
  <path
     d="m 471.95,253.05 c 0,120.9 -98.01,218.9 -218.9,218.9 -120.9,0 -218.9,-98.01 -218.9,-218.9 0,-120.9 98.01,-218.9 218.9,-218.9 120.9,0 218.9,98.01 218.9,218.9"
     fill="#924565"
     fill-rule="evenodd"
     id="path15"
     style="display:inline;fill:#26121b;fill-opacity:1"
     inkscape:label="Background" />
  <path
     d="m 136.71,136.71 c -8.983,0 -16.273,7.29 -16.273,16.273 v 206.06 c 0,4.777 2.075,9.05 5.355,12.03 0.356,0.391 0.721,0.757 1.112,1.113 0.35,0.385 0.693,0.762 1.078,1.112 0.328,0.361 0.686,0.713 1.043,1.043 0.391,0.435 0.816,0.86 1.252,1.252 0.366,0.397 0.744,0.788 1.147,1.147 0.32,0.345 0.659,0.657 1.01,0.973 0.356,0.391 0.721,0.757 1.112,1.113 0.316,0.349 0.628,0.689 0.973,1.01 0.359,0.404 0.75,0.782 1.147,1.147 0.391,0.435 0.816,0.86 1.252,1.252 0.366,0.397 0.744,0.788 1.147,1.147 0.32,0.345 0.659,0.657 1.01,0.973 0.356,0.391 0.721,0.757 1.112,1.113 0.316,0.349 0.628,0.689 0.973,1.01 0.359,0.404 0.75,0.782 1.147,1.147 0.391,0.435 0.816,0.86 1.252,1.252 0.324,0.353 0.689,0.686 1.043,1.01 0.391,0.431 0.783,0.866 1.217,1.252 0.32,0.345 0.659,0.657 1.01,0.973 0.316,0.349 0.628,0.689 0.973,1.01 0.387,0.434 0.821,0.826 1.252,1.217 0.322,0.355 0.656,0.718 1.01,1.043 0.391,0.435 0.816,0.86 1.252,1.252 0.366,0.397 0.744,0.788 1.147,1.147 0.32,0.345 0.659,0.657 1.01,0.973 0.356,0.391 0.721,0.757 1.112,1.112 0.316,0.349 0.628,0.689 0.973,1.01 0.359,0.404 0.75,0.782 1.147,1.147 0.391,0.435 0.816,0.86 1.252,1.252 0.366,0.397 0.744,0.788 1.147,1.147 0.32,0.345 0.659,0.657 1.01,0.973 0.356,0.391 0.721,0.757 1.113,1.113 0.316,0.349 0.628,0.689 0.973,1.01 0.359,0.403 0.75,0.782 1.147,1.147 0.391,0.435 0.816,0.86 1.252,1.252 0.33,0.358 0.682,0.716 1.043,1.043 0.351,0.385 0.727,0.728 1.113,1.078 0.356,0.391 0.721,0.757 1.113,1.112 0.316,0.349 0.628,0.689 0.973,1.01 0.359,0.404 0.75,0.782 1.147,1.147 0.391,0.435 0.816,0.86 1.252,1.252 0.324,0.353 0.689,0.685 1.043,1.01 0.391,0.431 0.783,0.866 1.217,1.252 0.32,0.345 0.659,0.657 1.01,0.973 0.356,0.391 0.721,0.757 1.112,1.112 0.356,0.391 0.721,0.757 1.113,1.113 0.322,0.355 0.656,0.718 1.01,1.043 0.391,0.435 0.816,0.86 1.252,1.252 0.366,0.397 0.744,0.788 1.147,1.147 0.32,0.345 0.659,0.657 1.01,0.973 0.356,0.391 0.721,0.757 1.113,1.113 0.316,0.349 0.628,0.689 0.973,1.01 0.359,0.404 0.75,0.782 1.147,1.147 0.391,0.435 0.816,0.86 1.252,1.252 0.366,0.397 0.744,0.788 1.147,1.147 0.32,0.345 0.659,0.657 1.01,0.973 0.356,0.391 0.721,0.757 1.112,1.112 0.316,0.349 0.628,0.689 0.973,1.01 0.359,0.404 0.75,0.782 1.147,1.147 0.391,0.435 0.816,0.86 1.252,1.252 0.33,0.358 0.682,0.716 1.043,1.043 0.386,0.424 0.789,0.836 1.217,1.217 0.32,0.345 0.659,0.657 1.01,0.973 0.316,0.349 0.628,0.689 0.973,1.01 0.381,0.428 0.793,0.831 1.217,1.217 0.328,0.361 0.685,0.713 1.043,1.043 0.391,0.435 0.816,0.86 1.252,1.252 0.366,0.397 0.744,0.788 1.147,1.147 0.32,0.345 0.659,0.657 1.01,0.973 0.356,0.391 0.721,0.757 1.113,1.113 0.316,0.349 0.628,0.689 0.973,1.01 0.359,0.404 0.75,0.782 1.147,1.147 0.391,0.435 0.816,0.86 1.252,1.252 0.366,0.397 0.744,0.788 1.147,1.147 0.32,0.345 0.659,0.657 1.01,0.973 0.356,0.391 0.721,0.757 1.112,1.112 0.316,0.349 0.628,0.689 0.973,1.01 0.359,0.404 0.75,0.782 1.147,1.147 0.391,0.435 0.816,0.86 1.252,1.252 0.324,0.353 0.689,0.685 1.043,1.01 0.356,0.391 0.721,0.757 1.113,1.113 0.356,0.391 0.721,0.757 1.112,1.112 0.316,0.349 0.628,0.689 0.973,1.01 0.359,0.403 0.75,0.782 1.147,1.147 0.391,0.435 0.816,0.86 1.252,1.252 0.33,0.358 0.682,0.716 1.043,1.043 0.386,0.424 0.789,0.836 1.217,1.217 0.32,0.345 0.659,0.657 1.01,0.973 0.356,0.391 0.721,0.757 1.113,1.112 0.35,0.385 0.693,0.762 1.078,1.113 0.328,0.361 0.685,0.713 1.043,1.043 0.391,0.435 0.816,0.86 1.252,1.252 0.366,0.397 0.744,0.788 1.147,1.147 0.32,0.345 0.659,0.657 1.01,0.973 0.356,0.391 0.721,0.757 1.112,1.113 0.316,0.349 0.628,0.689 0.973,1.01 0.359,0.403 0.75,0.782 1.147,1.147 0.391,0.435 0.816,0.86 1.252,1.252 0.366,0.397 0.744,0.788 1.147,1.147 0.32,0.345 0.659,0.657 1.01,0.973 0.356,0.391 0.721,0.757 1.113,1.113 0.316,0.349 0.628,0.689 0.973,1.01 0.359,0.403 0.75,0.782 1.147,1.147 0.391,0.435 0.816,0.86 1.252,1.252 0.324,0.353 0.689,0.686 1.043,1.01 0.391,0.431 0.783,0.865 1.217,1.252 0.32,0.345 0.659,0.657 1.01,0.973 0.316,0.349 0.628,0.689 0.973,1.01 0.387,0.434 0.821,0.826 1.252,1.217 0.322,0.355 0.656,0.718 1.01,1.043 0.391,0.435 0.816,0.86 1.252,1.252 0.366,0.397 0.744,0.788 1.147,1.147 0.32,0.345 0.659,0.657 1.01,0.973 0.034,0.037 0.071,0.068 0.105,0.105 0.571,0.004 1.131,0.035 1.704,0.035 134.52,0 243.58,-109.05 243.58,-243.58 0,-0.592 -0.03,-1.182 -0.035,-1.773 -0.098,-0.098 -0.175,-0.218 -0.278,-0.313 -0.359,-0.403 -0.75,-0.782 -1.147,-1.147 -0.369,-0.411 -0.773,-0.81 -1.183,-1.183 -0.408,-0.449 -0.831,-0.885 -1.286,-1.286 -0.336,-0.358 -0.677,-0.717 -1.043,-1.043 -0.32,-0.345 -0.659,-0.657 -1.01,-0.973 -0.316,-0.349 -0.628,-0.689 -0.973,-1.01 -0.359,-0.403 -0.75,-0.782 -1.147,-1.147 -0.369,-0.411 -0.773,-0.81 -1.183,-1.183 -0.372,-0.409 -0.771,-0.813 -1.183,-1.183 -0.366,-0.397 -0.744,-0.788 -1.147,-1.147 -0.32,-0.345 -0.659,-0.657 -1.01,-0.973 -0.316,-0.349 -0.628,-0.689 -0.973,-1.01 -0.349,-0.391 -0.728,-0.757 -1.113,-1.112 -0.359,-0.403 -0.75,-0.782 -1.147,-1.147 -0.391,-0.435 -0.816,-0.86 -1.252,-1.252 -0.366,-0.397 -0.744,-0.788 -1.147,-1.147 -0.32,-0.345 -0.659,-0.657 -1.01,-0.973 -0.356,-0.391 -0.721,-0.757 -1.113,-1.113 -0.316,-0.349 -0.628,-0.689 -0.973,-1.01 -0.359,-0.403 -0.75,-0.782 -1.147,-1.147 -0.391,-0.435 -0.816,-0.86 -1.252,-1.252 -0.366,-0.397 -0.744,-0.788 -1.147,-1.147 -0.356,-0.384 -0.721,-0.765 -1.113,-1.112 -0.32,-0.345 -0.659,-0.657 -1.01,-0.973 -0.316,-0.349 -0.628,-0.689 -0.973,-1.01 -0.359,-0.403 -0.75,-0.782 -1.147,-1.147 -0.369,-0.411 -0.773,-0.81 -1.183,-1.183 -0.372,-0.409 -0.771,-0.813 -1.183,-1.183 -0.366,-0.397 -0.744,-0.788 -1.147,-1.147 -0.32,-0.345 -0.659,-0.657 -1.01,-0.973 -0.316,-0.349 -0.628,-0.689 -0.973,-1.01 -0.349,-0.391 -0.728,-0.757 -1.113,-1.112 -0.359,-0.403 -0.75,-0.782 -1.147,-1.147 -0.391,-0.435 -0.816,-0.86 -1.252,-1.252 -0.366,-0.397 -0.744,-0.788 -1.147,-1.147 -0.32,-0.345 -0.659,-0.657 -1.01,-0.973 -0.356,-0.391 -0.721,-0.757 -1.112,-1.113 -0.316,-0.349 -0.628,-0.689 -0.973,-1.01 -0.359,-0.403 -0.75,-0.782 -1.147,-1.147 -0.391,-0.435 -0.816,-0.86 -1.252,-1.252 -0.366,-0.397 -0.744,-0.788 -1.147,-1.147 -0.32,-0.345 -0.659,-0.657 -1.01,-0.973 -0.356,-0.391 -0.721,-0.757 -1.113,-1.113 -0.316,-0.349 -0.628,-0.689 -0.973,-1.01 -0.359,-0.403 -0.75,-0.782 -1.147,-1.147 -0.391,-0.435 -0.816,-0.86 -1.252,-1.252 -0.366,-0.397 -0.744,-0.788 -1.147,-1.147 -0.356,-0.384 -0.721,-0.765 -1.112,-1.113 -0.32,-0.345 -0.659,-0.657 -1.01,-0.973 -0.316,-0.349 -0.628,-0.689 -0.973,-1.01 -0.359,-0.403 -0.75,-0.782 -1.147,-1.147 -0.369,-0.411 -0.773,-0.81 -1.183,-1.183 -0.372,-0.409 -0.771,-0.813 -1.183,-1.183 -0.366,-0.397 -0.744,-0.788 -1.147,-1.147 -0.32,-0.345 -0.659,-0.657 -1.01,-0.973 -0.316,-0.349 -0.628,-0.689 -0.973,-1.01 -0.349,-0.391 -0.728,-0.757 -1.113,-1.113 -0.359,-0.403 -0.75,-0.782 -1.147,-1.147 -0.391,-0.435 -0.816,-0.86 -1.252,-1.252 -0.366,-0.397 -0.744,-0.788 -1.147,-1.147 -0.32,-0.345 -0.659,-0.657 -1.01,-0.973 -0.356,-0.391 -0.721,-0.757 -1.113,-1.113 -0.316,-0.349 -0.628,-0.689 -0.973,-1.01 -0.359,-0.403 -0.75,-0.782 -1.147,-1.147 -0.391,-0.435 -0.816,-0.86 -1.252,-1.252 -0.366,-0.397 -0.744,-0.788 -1.147,-1.147 -0.32,-0.345 -0.659,-0.657 -1.01,-0.973 -0.356,-0.391 -0.721,-0.757 -1.112,-1.112 -0.316,-0.349 -0.628,-0.689 -0.973,-1.01 -0.359,-0.403 -0.75,-0.782 -1.147,-1.147 -0.369,-0.411 -0.773,-0.81 -1.183,-1.183 -0.372,-0.409 -0.771,-0.813 -1.183,-1.183 -0.366,-0.397 -0.744,-0.788 -1.147,-1.147 -0.32,-0.345 -0.659,-0.657 -1.01,-0.973 -0.316,-0.349 -0.628,-0.689 -0.973,-1.01 -0.359,-0.403 -0.75,-0.782 -1.147,-1.147 -0.369,-0.411 -0.773,-0.81 -1.183,-1.183 -0.372,-0.409 -0.771,-0.813 -1.183,-1.183 -0.366,-0.397 -0.744,-0.788 -1.147,-1.147 -0.32,-0.345 -0.659,-0.657 -1.01,-0.973 -0.356,-0.391 -0.721,-0.757 -1.113,-1.113 -0.316,-0.349 -0.628,-0.689 -0.973,-1.01 -0.359,-0.403 -0.75,-0.782 -1.147,-1.147 -0.391,-0.435 -0.816,-0.86 -1.252,-1.252 -0.366,-0.397 -0.744,-0.788 -1.147,-1.147 -0.32,-0.345 -0.659,-0.657 -1.01,-0.973 -0.356,-0.391 -0.721,-0.757 -1.112,-1.113 -0.316,-0.349 -0.628,-0.689 -0.973,-1.01 -0.359,-0.403 -0.75,-0.782 -1.147,-1.147 -0.391,-0.435 -0.816,-0.86 -1.252,-1.252 -0.366,-0.397 -0.744,-0.788 -1.147,-1.147 -0.356,-0.384 -0.721,-0.765 -1.113,-1.112 -0.32,-0.345 -0.659,-0.657 -1.01,-0.973 -0.316,-0.349 -0.628,-0.689 -0.973,-1.01 -0.359,-0.403 -0.75,-0.782 -1.147,-1.147 -0.369,-0.411 -0.773,-0.81 -1.183,-1.183 -0.372,-0.409 -0.771,-0.813 -1.183,-1.183 -0.366,-0.397 -0.744,-0.788 -1.147,-1.147 -2.97,-3.205 -7.211,-5.216 -11.927,-5.216 h -238.61"
     fill-opacity="0.235"
     id="path16"
     style="display:inline;opacity:1;fill:url(#linearGradient39);fill-opacity:1"
     inkscape:label="codebox-shadow" />
  <g
     fill="#ffffff"
     id="g35"
     style="display:inline;fill:url(#linearGradient49)">
    <path
       d="m 136.72,136.72 c -8.982,0 -16.281,7.268 -16.281,16.25 v 24.875 h 271.13 v -24.87 c 0,-8.985 -7.265,-16.25 -16.25,-16.25 h -238.59 m 168.06,10.813 c 5.978,0 10.875,4.894 10.875,10.875 0,5.981 -4.897,10.813 -10.875,10.813 -5.978,0 -10.813,-4.832 -10.813,-10.813 0,-5.981 4.834,-10.875 10.813,-10.875 m 29.844,0 c 5.978,0 10.844,4.894 10.844,10.875 0,5.981 -4.866,10.813 -10.844,10.813 -5.978,0 -10.813,-4.832 -10.813,-10.813 0,-5.981 4.834,-10.875 10.813,-10.875 m 29.813,0 c 5.978,0 10.844,4.894 10.844,10.875 0,5.981 -4.866,10.813 -10.844,10.813 -5.978,0 -10.844,-4.832 -10.844,-10.813 0,-5.981 4.866,-10.875 10.844,-10.875"
       id="path34"
       style="fill:url(#linearGradient49);fill-opacity:1" />
    <path
       d="M 120.44,192.24 V 359 c 0,8.982 7.305,16.287 16.287,16.287 h 238.58 c 8.985,0 16.254,-7.308 16.254,-16.287 V 192.24 h -271.13"
       id="path35"
       style="display:inline;fill:url(#linearGradient49)" />
  </g>
  <g
     fill="#70354d"
     stroke="#70354d"
     stroke-width="9.8"
     id="g38"
     style="display:inline">
    <path
       d="m 208.79,311.33 -52.38,-24.1 v -7.868 l 52.38,-27.29 v 13.205 l -35.38,17.442 35.38,15.461 z"
       id="path36"
       style="stroke:none;fill:#ffffff;fill-opacity:1;opacity:0.58712121" />
    <path
       d="M 271.59,225.39 240.78,337.86 H 226.36 L 257.17,225.39 Z"
       id="path37"
       style="fill:#21ca90;fill-opacity:1;stroke-width:0;stroke-dasharray:none" />
    <path
       d="m 303.21,298.18 35.38,-15.461 -35.38,-17.442 v -13.205 l 52.38,27.29 v 7.868 l -52.38,24.1 z"
       id="path38"
       style="font-variation-settings:normal;opacity:0.587121;vector-effect:none;fill:#ffffff;fill-opacity:1;stroke:none;stroke-width:9.8;stroke-linecap:butt;stroke-linejoin:miter;stroke-miterlimit:4;stroke-dasharray:none;stroke-dashoffset:0;stroke-opacity:1;-inkscape-stroke:none;stop-color:#000000;stop-opacity:1" />
  </g>
</svg>
