<?xml version="1.0" encoding="UTF-8" standalone="no"?>
<svg
   viewBox="0 0 256 256"
   width="256"
   height="256"
   version="1.1"
   id="svg3"
   sodipodi:docname="pwsl-logo.svg"
   inkscape:version="1.4 (86a8ad7, 2024-10-11)"
   xmlns:inkscape="http://www.inkscape.org/namespaces/inkscape"
   xmlns:sodipodi="http://sodipodi.sourceforge.net/DTD/sodipodi-0.dtd"
   xmlns="http://www.w3.org/2000/svg"
   xmlns:svg="http://www.w3.org/2000/svg">
  <sodipodi:namedview
     id="namedview3"
     pagecolor="#ffffff"
     bordercolor="#000000"
     borderopacity="0.25"
     inkscape:showpageshadow="2"
     inkscape:pageopacity="0.0"
     inkscape:pagecheckerboard="0"
     inkscape:deskcolor="#d1d1d1"
     inkscape:zoom="1.6409297"
     inkscape:cx="31.384648"
     inkscape:cy="157.22794"
     inkscape:window-width="2022"
     inkscape:window-height="1394"
     inkscape:window-x="1084"
     inkscape:window-y="221"
     inkscape:window-maximized="0"
     inkscape:current-layer="svg3" />
  <defs
     id="defs1">
    <style
       id="style1">
      .pw-color { fill: #012456; } /* PowerShell Blue */
      .sl-color { fill: #4E9A06; } /* Linux Green */
      .font-style { font-family: 'Consolas', 'Courier New', monospace; font-weight: bold; font-size: 40px; }
    </style>
  </defs>
  <g
     transform="matrix(7.2107746,0,0,7.2107746,-26.624452,-27.485549)"
     id="g2">
    <path
       class="pw-color"
       d="M 5,5 25,20 5,35 Z"
       id="path1" />
    <path
       class="sl-color"
       d="m 28,10 c 0,0 10,0 10,10 0,10 -10,10 -10,10 h 4 v 8 H 28 C 28,38 18,38 18,28 18,18 28,18 28,18 h -4 v -8 z m 0,6 c -4,0 -4,6 0,6 h 4 c 0,0 0,-6 -4,-6 z m -4,8 c 4,0 4,6 0,6 h -4 c 0,0 0,-6 4,-6 z"
       id="path2" />
  </g>
</svg>
