<?xml version="1.0" encoding="UTF-8" standalone="no"?>
<!-- Created with Inkscape (http://www.inkscape.org/) -->

<svg
   width="512"
   height="512"
   viewBox="0 0 135.46666 135.46667"
   version="1.1"
   id="svg1"
   xml:space="preserve"
   inkscape:version="1.4 (86a8ad7, 2024-10-11)"
   sodipodi:docname="phwriter-logo.svg"
   xmlns:inkscape="http://www.inkscape.org/namespaces/inkscape"
   xmlns:sodipodi="http://sodipodi.sourceforge.net/DTD/sodipodi-0.dtd"
   xmlns:xlink="http://www.w3.org/1999/xlink"
   xmlns="http://www.w3.org/2000/svg"
   xmlns:svg="http://www.w3.org/2000/svg"><sodipodi:namedview
     id="namedview1"
     pagecolor="#000000"
     bordercolor="#000000"
     borderopacity="0.25"
     inkscape:showpageshadow="2"
     inkscape:pageopacity="0.0"
     inkscape:pagecheckerboard="0"
     inkscape:deskcolor="#323232"
     inkscape:document-units="mm"
     inkscape:export-bgcolor="#dddddd00"
     inkscape:zoom="0.83161125"
     inkscape:cx="478.589"
     inkscape:cy="426.88215"
     inkscape:window-width="1915"
     inkscape:window-height="1716"
     inkscape:window-x="1224"
     inkscape:window-y="144"
     inkscape:window-maximized="0"
     inkscape:current-layer="layer1" /><defs
     id="defs1"><linearGradient
       id="linearGradient4"
       inkscape:collect="always"><stop
         style="stop-color:#ef2e2e;stop-opacity:0;"
         offset="0"
         id="stop4" /><stop
         style="stop-color:#30d24b;stop-opacity:0.49803922;"
         offset="0.5"
         id="stop6" /><stop
         style="stop-color:#11e2c7;stop-opacity:1;"
         offset="1"
         id="stop3" /></linearGradient><linearGradient
       id="linearGradient1"
       inkscape:collect="always"><stop
         style="stop-color:#56f1dd;stop-opacity:1;"
         offset="0"
         id="stop1" /><stop
         style="stop-color:#115de2;stop-opacity:0.49803922;"
         offset="0.5"
         id="stop5" /><stop
         style="stop-color:#3723ef;stop-opacity:0;"
         offset="1"
         id="stop2" /></linearGradient><linearGradient
       inkscape:collect="always"
       xlink:href="#linearGradient4"
       id="linearGradient2"
       x1="-33.74902"
       y1="-17.070948"
       x2="-3.7129745"
       y2="-17.070948"
       gradientUnits="userSpaceOnUse" /><linearGradient
       inkscape:collect="always"
       xlink:href="#linearGradient1"
       id="linearGradient3"
       gradientUnits="userSpaceOnUse"
       x1="-33.74902"
       y1="-17.070948"
       x2="-3.7129745"
       y2="-17.070948"
       gradientTransform="translate(-0.13702737,-0.86891584)" /><style
       id="style1">.cls-1{fill:#ffffff;}</style></defs><g
     inkscape:label="Layer 1"
     inkscape:groupmode="layer"
     id="layer1"><g
       style="fill:#000000"
       id="g1"
       transform="matrix(-3.8927516,0,0,-3.8646338,130.50412,131.80521)"><rect
         style="opacity:1;fill:url(#linearGradient2);stroke-width:1.68534;paint-order:stroke fill markers"
         id="rect1"
         width="30.036045"
         height="30.59882"
         x="-33.74902"
         y="-32.370358"
         transform="matrix(-1,0,0.14957836,-0.98874987,0,0)"
         ry="2.6598334"
         rx="2.7167377" /><rect
         style="fill:url(#linearGradient3);stroke-width:0.25928313;paint-order:stroke fill markers;stroke:#000000;stroke-opacity:1;stroke-dasharray:none"
         id="rect1-1"
         width="30.036045"
         height="30.59882"
         x="-33.886044"
         y="-33.239273"
         transform="matrix(-1,0,0.14957836,-0.98874987,0,0)"
         ry="2.6598334"
         rx="2.7167377" /></g><g
       id="g26"
       transform="matrix(0.09652786,0,0,0.09652786,22.41407,13.856324)"><path
         d="m 282.2,1011 c -2.1,0 -4.2,-0.5 -6.2,-1.5 -7.4,-3.8 -72.4,-37.5 -91.4,-61 -11,-13.7 -21.7,-45.3 -9.5,-69.7 12.9,-25.8 43.3,-30.2 66.6,-29.4 23.4,0.8 38.7,-5.1 45.5,-17.6 8,-14.8 2.5,-36 -2.6,-43.3 -4.8,-6.8 -19.7,-22 -64.6,-48.1 -26.4,-15.3 -50.1,-26.8 -50.4,-26.9 -6.8,-3.3 -9.6,-11.4 -6.4,-18.2 3.3,-6.8 11.4,-9.6 18.2,-6.4 1,0.5 25,12.1 52.2,27.9 37.7,21.9 62.3,40.7 73.1,55.8 9.9,13.9 18.2,46.4 4.5,72 -8,14.8 -25.7,32 -65.4,32.1 -1.7,0 -3.4,0 -5.1,-0.1 -15.2,-0.5 -34.8,1.5 -41.2,14.4 -6.5,13 0.8,33.4 6.3,40.3 11.6,14.3 56.8,40.7 82.6,53.9 6.7,3.4 9.4,11.7 5.9,18.4 -2.4,4.7 -7.2,7.4 -12.1,7.4 z"
         fill="#10457e"
         id="path1" /><path
         d="m 598.6,420.8 -71.3,-71.3 -71.3,-71.3 -189.8,74 c 0,0 -3.2,162.5 -54.1,266.7 -20.3,41.5 -36.4,81 -37.2,83.1 2.1,-0.8 41.6,-16.9 83.1,-37.2 104.2,-50.9 266.7,-54.1 266.7,-54.1 z"
         fill="#fcfcfc"
         id="path2" /><path
         d="m 174.9,715.6 c -3.6,0 -7,-1.4 -9.7,-4 -3.9,-3.9 -5.1,-9.7 -3,-14.8 0.7,-1.7 17.1,-42 37.6,-83.9 49,-100.2 52.7,-259.4 52.8,-261 0.1,-5.5 3.5,-10.4 8.7,-12.4 l 189.8,-74 c 5,-2 10.8,-0.8 14.6,3.1 l 142.5,142.5 c 3.8,3.8 5,9.6 3.1,14.6 l -74,189.8 c -2,5.2 -6.9,8.6 -12.5,8.7 -1.6,0 -160.7,3.8 -261,52.8 -42.1,20.6 -82.2,36.9 -83.9,37.6 -1.5,0.7 -3.3,1 -5,1 z m 104.7,-354 c -0.6,15.1 -2.5,47.2 -7.8,86.6 -9.7,72.7 -25.7,132.1 -47.4,176.6 -9.1,18.5 -17.3,36.7 -23.7,51.3 14.5,-6.4 32.7,-14.6 51.3,-23.7 44.5,-21.8 104,-37.7 176.6,-47.4 39.4,-5.3 71.6,-7.1 86.6,-7.8 l 67.5,-173.1 -130,-129.9 z"
         fill="#10457e"
         id="path3" /><path
         d="m 306.95135,999.97888 m -37.1,0 a 37.1,37.1 0 1 0 74.2,0 37.1,37.1 0 1 0 -74.2,0 z"
         fill="#154b8b"
         id="path4"
         style="fill:#deab25;fill-opacity:1" /><path
         d="M 432.1,444.7 204.5,672.3"
         fill="#fcfcfc"
         id="path5" /><path
         d="m 204.5,686 c -3.5,0 -7,-1.3 -9.7,-4 -5.3,-5.3 -5.3,-14 0,-19.3 L 422.4,435.1 c 5.3,-5.3 14,-5.3 19.3,0 5.3,5.3 5.3,14 0,19.3 L 214.2,682 c -2.7,2.7 -6.2,4 -9.7,4 z"
         fill="#10457e"
         id="path6" /><path
         d="M 599.7,421.8 455,277.1 637.6,29.1 847.8,239.2 Z"
         fill="#9ed5e4"
         id="path7" /><path
         d="m 599.7,435.5 c -3.5,0 -7,-1.4 -9.7,-4 L 445.4,286.8 c -4.8,-4.8 -5.3,-12.3 -1.3,-17.7 L 626.6,21 c 2.4,-3.2 6,-5.2 10,-5.5 4,-0.3 7.9,1.1 10.7,4 l 210.1,210.1 c 2.8,2.8 4.3,6.7 4,10.7 -0.3,4 -2.3,7.6 -5.5,10 l -248,182.6 c -2.5,1.7 -5.4,2.6 -8.2,2.6 z M 473,275.8 601.1,403.9 826.9,237.7 639.2,50 Z"
         fill="#154b8b"
         id="path8" /></g><path
       style="opacity:0.764411;fill:#deab25;fill-opacity:1;stroke:#68e04e;stroke-width:1;stroke-dasharray:none;stroke-opacity:0.956863;paint-order:stroke fill markers"
       d="M 66.494911,111.19603 50.905195,79.857525"
       id="path26" /><path
       style="opacity:0.764411;fill:#deab25;fill-opacity:1;stroke:#68e04e;stroke-width:1;stroke-dasharray:none;stroke-opacity:0.956863;paint-order:stroke fill markers"
       d="m 54.723085,77.94858 5.567754,11.612748"
       id="path27" /><path
       style="opacity:0.764411;fill:#deab25;fill-opacity:1;stroke:#68e04e;stroke-width:1;stroke-dasharray:none;stroke-opacity:0.956863;paint-order:stroke fill markers"
       d="m 61.764907,92.724045 6.755669,12.604935"
       id="path28" /><path
       style="opacity:0.764411;fill:#deab25;fill-opacity:1;stroke:#10457e;stroke-width:2.99999993;stroke-dasharray:none;stroke-opacity:1;paint-order:stroke fill markers"
       d="m 59.972683,76.357791 c 4.772361,8.90841 4.772361,8.90841 4.772361,8.90841 0,0 1.27263,-11.45367 6.999464,-3.976968 5.726835,7.476702 5.567757,7.476702 5.567757,7.476702 l -5.249598,8.272091 c 0,0 -7.476701,-8.749328 -6.681308,-8.749328 0.795395,0 19.089449,13.044452 19.089449,13.044452 l 2.068023,-12.249059"
       id="path29" /></g></svg>
