<?xml version="1.0" encoding="UTF-8" standalone="no"?>
<!-- Created with Inkscape (http://www.inkscape.org/) -->

<svg
   width="300mm"
   height="300mm"
   viewBox="0 0 300 300"
   version="1.1"
   id="svg5"
   xml:space="preserve"
   inkscape:version="1.3.2 (091e20e, 2023-11-25, custom)"
   sodipodi:docname="cobralog-logo.svg"
   inkscape:export-filename="cobralog-logo.png"
   inkscape:export-xdpi="5.8000002"
   inkscape:export-ydpi="5.8000002"
   xmlns:inkscape="http://www.inkscape.org/namespaces/inkscape"
   xmlns:sodipodi="http://sodipodi.sourceforge.net/DTD/sodipodi-0.dtd"
   xmlns:xlink="http://www.w3.org/1999/xlink"
   xmlns="http://www.w3.org/2000/svg"
   xmlns:svg="http://www.w3.org/2000/svg"><sodipodi:namedview
     id="namedview7"
     pagecolor="#3f3f3f"
     bordercolor="#000000"
     borderopacity="0.25"
     inkscape:showpageshadow="2"
     inkscape:pageopacity="0.0"
     inkscape:pagecheckerboard="0"
     inkscape:deskcolor="#d1d1d1"
     inkscape:document-units="mm"
     showgrid="false"
     inkscape:zoom="0.45067361"
     inkscape:cx="625.73001"
     inkscape:cy="766.6302"
     inkscape:window-width="2103"
     inkscape:window-height="2002"
     inkscape:window-x="3041"
     inkscape:window-y="9"
     inkscape:window-maximized="0"
     inkscape:current-layer="layer5"
     showguides="true"><sodipodi:guide
       position="445.3554,-34.305744"
       orientation="1,0"
       id="guide1754"
       inkscape:locked="false" /></sodipodi:namedview><defs
     id="defs2"><linearGradient
       id="linearGradient45"
       inkscape:collect="always"><stop
         style="stop-color:#3817bc;stop-opacity:1;"
         offset="0"
         id="stop46" /><stop
         style="stop-color:#5f277c;stop-opacity:1;"
         offset="0.13578275"
         id="stop47" /><stop
         style="stop-color:#7025a8;stop-opacity:1;"
         offset="0.27076676"
         id="stop48" /><stop
         style="stop-color:#030bd7;stop-opacity:1;"
         offset="1"
         id="stop45" /></linearGradient><linearGradient
       id="linearGradient43"
       inkscape:collect="always"><stop
         style="stop-color:#fdf2ed;stop-opacity:1;"
         offset="0"
         id="stop43" /><stop
         style="stop-color:#fdf2ed;stop-opacity:0;"
         offset="1"
         id="stop44" /></linearGradient><linearGradient
       id="linearGradient37"
       inkscape:collect="always"><stop
         style="stop-color:#81ff25;stop-opacity:1;"
         offset="0"
         id="stop37" /><stop
         style="stop-color:#0071fa;stop-opacity:1;"
         offset="0.5"
         id="stop39" /><stop
         style="stop-color:#6d23a1;stop-opacity:1;"
         offset="0.75"
         id="stop40" /><stop
         style="stop-color:#030bd7;stop-opacity:1;"
         offset="1"
         id="stop38" /></linearGradient><linearGradient
       id="linearGradient23"
       inkscape:collect="always"><stop
         style="stop-color:#00d37a;stop-opacity:1;"
         offset="0"
         id="stop23" /><stop
         style="stop-color:#94112a;stop-opacity:1;"
         offset="1"
         id="stop24" /></linearGradient><linearGradient
       inkscape:collect="always"
       id="linearGradient18608"><stop
         style="stop-color:#94112a;stop-opacity:1;"
         offset="0"
         id="stop18604" /><stop
         style="stop-color:#b9009d;stop-opacity:0;"
         offset="1"
         id="stop18606" /></linearGradient><inkscape:perspective
       sodipodi:type="inkscape:persp3d"
       inkscape:vp_x="46.603769 : 195.61001 : 1"
       inkscape:vp_y="327.2635 : 944.93312 : 0"
       inkscape:vp_z="330.0837 : 97.430957 : 1"
       inkscape:persp3d-origin="171.98056 : 99.273826 : 1"
       id="perspective7899" /><style
       id="style1685">.a{fill:none;stroke:#000000;stroke-linecap:round;stroke-linejoin:round;}</style><radialGradient
       inkscape:collect="always"
       xlink:href="#linearGradient18608"
       id="radialGradient23"
       cx="149.11937"
       cy="152.64189"
       fx="149.11937"
       fy="152.64189"
       r="144.52829"
       gradientTransform="matrix(0.93602239,0,0,0.93980654,10.042487,7.1807599)"
       gradientUnits="userSpaceOnUse" /><radialGradient
       inkscape:collect="always"
       xlink:href="#linearGradient23"
       id="radialGradient24"
       cx="149.11937"
       cy="152.64189"
       fx="149.11937"
       fy="152.64189"
       r="144.52829"
       gradientTransform="matrix(0.93602239,0,0,0.93980654,10.042487,7.1807599)"
       gradientUnits="userSpaceOnUse" /><linearGradient
       inkscape:collect="always"
       xlink:href="#linearGradient37"
       id="linearGradient38"
       x1="22.16358"
       y1="63.753158"
       x2="100.18298"
       y2="63.753158"
       gradientUnits="userSpaceOnUse" /><linearGradient
       inkscape:collect="always"
       xlink:href="#linearGradient43"
       id="linearGradient44"
       x1="195.78481"
       y1="-88.252978"
       x2="197.1623"
       y2="-88.252978"
       gradientUnits="userSpaceOnUse"
       gradientTransform="translate(0.92230756,-3.2630723)" /><linearGradient
       inkscape:collect="always"
       xlink:href="#linearGradient45"
       id="linearGradient46"
       x1="48.64"
       y1="92.077569"
       x2="123.04309"
       y2="92.077569"
       gradientUnits="userSpaceOnUse" /></defs><g
     inkscape:groupmode="layer"
     id="layer5"
     inkscape:label="Layer 3"
     style="display:inline;fill:#241c1c"><ellipse
       style="display:inline;opacity:0.549242;fill:#6621a4;fill-opacity:1;stroke:#e84c3a;stroke-width:1.654;stroke-dasharray:1.654, 19.848;stroke-dashoffset:0;stroke-opacity:1"
       id="path48"
       cx="150.48505"
       cy="232.68103"
       rx="122.25613"
       ry="16.812813" /><rect
       style="display:none;fill:#0f0b0b;fill-opacity:0.92219;fill-rule:evenodd;stroke:#3ad9e8;stroke-width:6.144;stroke-linejoin:miter;stroke-dasharray:none;stroke-opacity:1;paint-order:fill markers stroke"
       id="rect16397-0"
       width="276.61597"
       height="277.74786"
       x="11.511189"
       y="11.663748"
       ry="96.900803"
       inkscape:label="frame" /><rect
       style="display:none;opacity:0.192771;mix-blend-mode:lighten;fill:url(#radialGradient24);fill-opacity:1;fill-rule:evenodd;stroke:url(#radialGradient23);stroke-width:3.23223;stroke-linejoin:miter;stroke-dasharray:none;stroke-opacity:0.587896;paint-order:fill markers stroke"
       id="rect22"
       width="267.33121"
       height="268.42502"
       x="15.955955"
       y="16.422085"
       ry="93.648262"
       inkscape:label="film" /><g
       id="g37"
       transform="matrix(1.6536458,0,0,1.6536458,43.853329,38.283272)"
       inkscape:label="cobra"><path
         d="m 48.65,76.52 c 0,0 8.99,-6.82 22.43,-6.57 19.9,0.38 24.12,9.85 24.12,9.85 l 3.19,15.02 c 0,0 6.01,1.78 7.88,1.97 1.88,0.19 5.54,1.17 9.95,-1.92 4.41,-3.1 8.84856,-31.81196 7.72459,-30.834399 2.82,0.12 -1.44459,33.974399 -3.88459,36.984399 -2.44,3 -13.33,8.73 -17.93,9.95 -4.6,1.22 -6.01,3.14 -10.79,3.24 -4.79,0.09 -16.8,-3.14 -16.8,-3.14 L 48.64,98.87 V 76.52 Z"
         fill="#96a820"
         id="path1"
         style="display:inline;fill:url(#linearGradient46)"
         sodipodi:nodetypes="ccccccccsccccc" /><path
         d="m 58.13,96.23 c 0,0 3.94,-7.04 10.98,-6.48 7.04,0.56 9.57,5.54 9.57,5.54 l -15.58,5.07 z"
         fill="#70853b"
         id="path2"
         style="display:inline;opacity:0.549242;fill:#000000;fill-opacity:0.706383" /><path
         d="m 94.26,105.34 c 4.97,1.6 6.85,1.41 6.85,1.41 0,0 2.91,-3.1 4.13,-5.73 1.22,-2.63 1.36,-4.13 1.36,-4.13 0,0 -1.92,-0.47 -3.71,-1.03 -1.78,-0.56 -5.35,-2.63 -5.35,-2.63 l -4.13,11.36 z"
         fill="#70853b"
         id="path3"
         style="display:inline;fill:#1e0a2c;fill-opacity:1" /><path
         d="M 50.62,5.71 C 65.26,6.41 77.9,19.46 73.57,36.54 70.33,49.3 59.06,66.18 56.25,70.51 c -5.16,7.98 -10.7,23.46 4.83,25.11 22.21,2.35 5.81,-9.83 16.67,-17.34 5.7,-3.94 12.19,-2.7 16.37,0.3 5.45,3.92 20.62,46.06 -34.91,43.13 C 47.67,121.1 38.5,114.74 33.45,109.88 18.5,95.52 29.97,71.58 30.92,69.48 32.18,66.67 44,51.32 43.16,46.4 42.32,41.47 38.23,42.74 32.6,40.77 26.97,38.8 20.72,32.57 22.46,24.02 24.08,16.06 30.22,4.73 50.62,5.71 Z"
         fill="#bed04a"
         id="path4"
         style="display:inline;fill:url(#linearGradient38)"
         inkscape:label="body-top" /><path
         d="m 92.15,114.46 c 0,0 2.72,-2.46 3.66,-3.21 0.94,-0.75 5.3,-4.5 5.3,-4.5 0,0 6.93,-0.25 11.73,-2.25 5.96,-2.49 10.22881,-19.46948 10.87632,-20.959432 0.25,-1.19 -0.87627,22.859582 -11.63517,27.919532 -8.25,5.57 -19.93115,2.9999 -19.93115,2.9999 z"
         fill="#e4dda2"
         id="path5"
         sodipodi:nodetypes="csccccc" /><path
         d="m 22.53,86.87 c -0.33,12.53 9.91,25.73 18.79,29.28 4.93,1.97 -15.77,-7.67 -14.08,-28.23 1.34,-16.35 17.81,-30.27 18.16,-39.56 0.21,-5.63 -6.76,-6.12 -6.76,-6.12 0,0 2.16,1.62 2.25,3.73 0.14,3.38 -8.59,15.77 -10.42,18.3 -1.81,2.54 -7.65,11.9 -7.94,22.6 z"
         fill="#e4dda2"
         id="path6" /><path
         d="m 25,30.07 4.32,4.69 c 0.05952,-0.08219 -13.448879,4.976634 -11.334552,7.891441 1.268744,1.749088 14.674562,4.226931 11.345799,6.655267 C 23.058897,53.882394 19.715174,64.201233 19.053684,66.74975 17.058756,65.982045 2.9346864,55.93541 2.4346864,55.45541 1.8046864,54.84541 9.33,46.89 10.92,45.48 c 1.21,-1.07 4.22,-3.78 4.22,-3.78 0,0 -3.71,0.4 -5.49,0.4 -1.78,0 -6.33,0.14 -5.91,-0.7 0.33,-0.66 6.88,-1.7 9.34,-2.7 C 20.49,35.7 25,30.07 25,30.07 Z"
         fill="#ee6d33"
         id="path7"
         sodipodi:nodetypes="ccssccccsscc"
         style="fill:#240d03;fill-opacity:1" /><path
         d="M 42.88,15.21 C 40.31,17 37.81,16.55 37,15.05 c -0.6,-1.12 -0.77,-3.24 1.6,-5.03 1.185689,-0.8963583 4.513901,2.065505 5.661241,2.279701 C 45.136304,12.463065 43.925969,9.691549 44.35,10.28 c 0.82,1.15 0.48,3.58 -1.47,4.93 z"
         fill="#323234"
         id="path8"
         inkscape:label="eye-left"
         sodipodi:nodetypes="cccscc" /><path
         d="m 54.91,26.87 c -3.07,1.8 -5.56,0.87 -6.62,-0.76 -0.86,-1.33 -0.66,-4.53 1.83,-5.97 2.58,-1.5 5.44,-0.96 6.54,0.83 0.506854,0.826393 -2.294643,-2.143115 -2.673681,-0.921373 C 53.677358,21.04449 55.960827,26.254772 54.91,26.87 Z"
         fill="#323234"
         id="path9"
         sodipodi:nodetypes="ccccsc" /><path
         d="m 66.67,43.49 c -1.83,4.25 1.83,6.22 1.83,6.22 0,0 1.43,-3.05 2.04,-4.43 0.75,-1.71 1.48,-3.84 1.48,-3.84 0,0 -3.89,-1.35 -5.35,2.05 z"
         fill="#e4dda2"
         id="path10" /><path
         d="m 64.84,56.46 c 0,0 -2.53,-0.28 -4.79,-1.06 -2.05,-0.71 -5.5,-3.6 -7.6,0.14 -1.94,3.45 1.31,5.35 3.87,6.41 2.39,0.99 4.54,1.34 4.54,1.34 0,0 1.64,-2.75 2.11,-3.52 0.47,-0.77 1.87,-3.31 1.87,-3.31 z"
         fill="#e4dda2"
         id="path11"
         style="stroke:#e84c3a;stroke-width:1.00021;stroke-dasharray:1.00021, 12.0026;stroke-dashoffset:0;stroke-opacity:1" /><path
         d="m 56.25,70.52 c 0,0 -3.38,-0.19 -5.56,-0.75 -1.91,-0.49 -5.4,-2.82 -7.32,0.21 -1.71,2.7 0.77,4.84 4.08,5.7 3.66,0.95 5.77,0.67 5.77,0.67 0,0 0.88,-1.79 1.23,-2.78 0.37,-1.01 1.8,-3.05 1.8,-3.05 z"
         fill="#e4dda2"
         id="path12" /><path
         d="m 51.02,83.37 c 0,0 -4.08,0.56 -6.05,0.56 -2.04,0 -7.2,-0.48 -7.09,4.27 0.09,4.08 5.62,3.74 7.04,3.71 2.02,-0.05 7.29,-1 7.29,-1 0,0 -0.9,-1.6 -1.16,-3.84 -0.2,-1.64 -0.03,-3.7 -0.03,-3.7 z"
         fill="#e4dda2"
         id="path13" /><path
         d="m 55.12,93.84 c 0,0 -0.66,2.97 -1.62,5.14 -1.06,2.39 -3.52,6.48 1.48,8.38 4.62,1.76 6.48,-1.55 7.32,-5.28 0.78,-3.47 0.84,-6.3 0.84,-6.3 0,0 -2.44,-0.11 -4.46,-0.57 -1.62,-0.39 -3.56,-1.37 -3.56,-1.37 z"
         fill="#e4dda2"
         id="path14" /><path
         d="m 70.82,95.27 c 0,0 3.31,2.89 4.36,4.36 1.06,1.48 3.47,5.94 7.32,4.01 3.38,-1.69 0.65,-6.85 -0.99,-8.73 -1.37,-1.57 -3.45,-3.28 -5.42,-4.41 -1.32,-0.75 -2.44,-0.94 -2.44,-0.94 0,0 0.23,2.06 -0.38,3.52 -0.64,1.57 -2.45,2.19 -2.45,2.19 z"
         fill="#e4dda2"
         id="path15" /><path
         d="m 75.19,85.53 c 0.34,1.16 1.35,1.21 3.59,0.28 2.39,-0.99 5.63,-1.48 8.31,-1.48 3.17,0 6.26,2.11 7.39,3.03 1.13,0.92 2.49,1.24 2.7,-0.52 0.21,-1.76 -1.06,-3.73 -3.52,-5.49 -1.5,-1.07 -4.18,-2.72 -7.34,-2.79 -3.37,-0.07 -6.48,1.13 -8.45,2.39 -1.22,0.79 -3.25,2.68 -2.68,4.58 z"
         fill="#e4dda2"
         id="path16" /></g><ellipse
       style="opacity:1;fill:#240d03;fill-opacity:1;stroke:none;stroke-width:1;stroke-dasharray:none;stroke-dashoffset:0;stroke-opacity:1"
       id="path40"
       cx="128.03989"
       cy="11.596951"
       rx="9.9070454"
       ry="1.1007828"
       transform="rotate(40.785009)" /><rect
       style="opacity:1;fill:#7aec51;fill-opacity:1;stroke:none;stroke-width:1;stroke-dasharray:none;stroke-dashoffset:0;stroke-opacity:1"
       id="rect40"
       width="1.9080235"
       height="24.510763"
       x="126.35817"
       y="37.126186"
       transform="rotate(41.624488)" /><rect
       style="opacity:1;fill:#dd8719;fill-opacity:1;stroke:none;stroke-width:0.754554;stroke-dasharray:none;stroke-dashoffset:0;stroke-opacity:1"
       id="rect41"
       width="1.3774962"
       height="19.329935"
       x="192.49384"
       y="-98.186333"
       transform="matrix(0.03333224,0.99944433,-0.63925157,0.76899768,0,0)" /><rect
       style="opacity:1;fill:url(#linearGradient44);stroke:none;stroke-width:0.754554;stroke-dasharray:none;stroke-dashoffset:0;stroke-opacity:1"
       id="rect42"
       width="1.3774962"
       height="19.329935"
       x="196.70711"
       y="-101.18102"
       transform="matrix(0.03333224,0.99944433,-0.63925157,0.76899768,0,0)" /><text
       xml:space="preserve"
       style="font-style:normal;font-variant:normal;font-weight:normal;font-stretch:normal;font-size:35.2778px;font-family:'JetBrainsMono Nerd Font Mono';-inkscape-font-specification:'JetBrainsMono Nerd Font Mono';opacity:1;fill:#d0aeef;fill-opacity:1;stroke:#030bd7;stroke-width:0.654;stroke-dasharray:none;stroke-dashoffset:0;stroke-opacity:1"
       x="-145.30437"
       y="265.31299"
       id="text48"
       transform="rotate(-88.896155)"><tspan
         sodipodi:role="line"
         id="tspan48"
         style="font-style:normal;font-variant:normal;font-weight:normal;font-stretch:normal;font-size:35.2778px;font-family:'JetBrainsMono Nerd Font Mono';-inkscape-font-specification:'JetBrainsMono Nerd Font Mono';fill:#d0aeef;fill-opacity:1;stroke:#030bd7;stroke-width:0.654;stroke-dasharray:none;stroke-dashoffset:0;stroke-opacity:1"
         x="-145.30437"
         y="265.31299">C</tspan></text></g><style
     type="text/css"
     id="style1501">
	.st0{fill:#3B4652;}
	.st1{fill:#2B79C2;}
</style><style
     type="text/css"
     id="style1765">
	.stone_een{fill:#0B1719;}
</style><style
     type="text/css"
     id="style7684">
	.stone_een{fill:#0B1719;}
</style><style
     type="text/css"
     id="style10917">
	.stone_een{fill:#0B1719;}
</style></svg>
