<?xml version="1.0" encoding="UTF-8" standalone="no"?>
<!-- Uploaded to: SVG Repo, www.svgrepo.com, Generator: SVG Repo Mixer Tools -->

<svg
   fill="#000000"
   height="800px"
   width="800px"
   version="1.1"
   id="Capa_1"
   viewBox="0 0 360 360"
   xml:space="preserve"
   sodipodi:docname="quicklog-logo.svg"
   inkscape:version="1.4 (86a8ad7, 2024-10-11)"
   xmlns:inkscape="http://www.inkscape.org/namespaces/inkscape"
   xmlns:sodipodi="http://sodipodi.sourceforge.net/DTD/sodipodi-0.dtd"
   xmlns:xlink="http://www.w3.org/1999/xlink"
   xmlns="http://www.w3.org/2000/svg"
   xmlns:svg="http://www.w3.org/2000/svg"><defs
   id="defs1"><linearGradient
     id="linearGradient25"
     inkscape:collect="always"><stop
       style="stop-color:#ffffff;stop-opacity:1;"
       offset="0"
       id="stop25" /><stop
       style="stop-color:#ffffff;stop-opacity:0;"
       offset="1"
       id="stop26" /></linearGradient><linearGradient
     id="linearGradient24"
     inkscape:collect="always"><stop
       style="stop-color:#000000;stop-opacity:1;"
       offset="0"
       id="stop24" /><stop
       style="stop-color:#000000;stop-opacity:0.49803922;"
       offset="0.5"
       id="stop23" /><stop
       style="stop-color:#000000;stop-opacity:0;"
       offset="1"
       id="stop22" /></linearGradient><linearGradient
     id="linearGradient18"
     inkscape:collect="always"><stop
       style="stop-color:#000000;stop-opacity:0;"
       offset="0"
       id="stop19" /><stop
       style="stop-color:#000000;stop-opacity:0.49803922;"
       offset="0.5"
       id="stop20" /><stop
       style="stop-color:#000000;stop-opacity:1;"
       offset="1"
       id="stop18" /></linearGradient><linearGradient
     id="linearGradient52"
     inkscape:collect="always"><stop
       style="stop-color:#858ce7;stop-opacity:0.68604654;"
       offset="0"
       id="stop52" /><stop
       style="stop-color:#7ceec8;stop-opacity:0.86764705;"
       offset="0.8462441"
       id="stop54" /><stop
       style="stop-color:#434343;stop-opacity:0;"
       offset="1"
       id="stop53" /></linearGradient><linearGradient
     id="linearGradient60143"
     inkscape:swatch="solid"><stop
       style="stop-color:#156f5c;stop-opacity:1;"
       offset="0"
       id="stop60141" /></linearGradient><inkscape:perspective
     sodipodi:type="inkscape:persp3d"
     inkscape:vp_x="-22.084864 : 28.266861 : 1"
     inkscape:vp_y="0 : 1000 : 0"
     inkscape:vp_z="113.3818 : 28.266861 : 1"
     inkscape:persp3d-origin="45.648465 : 5.689083 : 1"
     id="perspective9969" /><linearGradient
     id="linearGradient1805"
     inkscape:swatch="solid"><stop
       style="stop-color:#000000;stop-opacity:1;"
       offset="0"
       id="stop1803" /></linearGradient><linearGradient
     id="linearGradient26338"
     inkscape:swatch="solid"><stop
       style="stop-color:#3134ff;stop-opacity:1;"
       offset="0"
       id="stop26336" /></linearGradient><linearGradient
     id="a"
     x1="23.325"
     y1="-118.543"
     x2="7.26"
     y2="-104.193"
     gradientTransform="matrix(1, 0, 0, -1, 0, -96)"
     gradientUnits="userSpaceOnUse"><stop
       offset="0"
       stop-color="#5391fe"
       id="stop2093" /><stop
       offset="1"
       stop-color="#3e6dbf"
       id="stop2095" /></linearGradient><linearGradient
     id="b"
     x1="7.1"
     y1="-104.002"
     x2="23.001"
     y2="-118.292"
     xlink:href="#a" /><inkscape:perspective
     sodipodi:type="inkscape:persp3d"
     inkscape:vp_x="177.31719 : 15.579845 : 1"
     inkscape:vp_y="0 : 976.31087 : 0"
     inkscape:vp_z="-16.328893 : 15.579845 : 1"
     inkscape:persp3d-origin="80.494142 : -6.4631078 : 1"
     id="perspective9969-0" /><filter
     inkscape:collect="always"
     style="color-interpolation-filters:sRGB"
     id="filter53298"
     x="-0.011994515"
     y="-0.011994515"
     width="1.023989"
     height="1.023989"><feGaussianBlur
       inkscape:collect="always"
       stdDeviation="0.069575046"
       id="feGaussianBlur53300" /></filter><radialGradient
     inkscape:collect="always"
     xlink:href="#linearGradient52"
     id="radialGradient53"
     cx="278.56946"
     cy="-11.851724"
     fx="278.56946"
     fy="-11.851724"
     r="62.00016"
     gradientUnits="userSpaceOnUse" /><linearGradient
     inkscape:collect="always"
     xlink:href="#linearGradient18"
     id="linearGradient19"
     x1="41.733"
     y1="187.749"
     x2="328.846"
     y2="187.749"
     gradientUnits="userSpaceOnUse" /><linearGradient
     inkscape:collect="always"
     xlink:href="#linearGradient24"
     id="linearGradient22"
     gradientUnits="userSpaceOnUse"
     x1="41.733"
     y1="187.749"
     x2="328.846"
     y2="187.749"
     gradientTransform="matrix(-0.70383317,-0.34385072,-0.34385072,0.70383317,379.41643,113.8562)" /><radialGradient
     inkscape:collect="always"
     xlink:href="#linearGradient25"
     id="radialGradient26"
     cx="185.26744"
     cy="187.74899"
     fx="185.26744"
     fy="187.74899"
     r="144.07857"
     gradientTransform="matrix(1,0,0,1.0020575,0,-0.38629277)"
     gradientUnits="userSpaceOnUse" /></defs><sodipodi:namedview
   id="namedview1"
   pagecolor="#121212"
   bordercolor="#000000"
   borderopacity="0.25"
   inkscape:showpageshadow="2"
   inkscape:pageopacity="0.0"
   inkscape:pagecheckerboard="0"
   inkscape:deskcolor="#d1d1d1"
   inkscape:zoom="0.125"
   inkscape:cx="-2064"
   inkscape:cy="-1772"
   inkscape:window-width="1910"
   inkscape:window-height="1505"
   inkscape:window-x="2413"
   inkscape:window-y="551"
   inkscape:window-maximized="0"
   inkscape:current-layer="Capa_1" />
<g
   id="g10"
   transform="matrix(1.7007874,0,0,1.7007874,-351.076,152.60975)"
   style="display:inline"
   inkscape:label="background"><circle
     style="display:inline;opacity:1;fill:#000000;fill-opacity:0.892045;fill-rule:nonzero;stroke:#5b37d9;stroke-width:2.571;stroke-linecap:square;stroke-linejoin:round;stroke-dasharray:none;stroke-dashoffset:0;stroke-opacity:0.501538;paint-order:markers fill stroke;filter:url(#filter53298);stop-color:#000000"
     id="path48010-6"
     cx="278.56946"
     cy="-11.85172"
     r="60.547684"
     inkscape:label="circle-background"
     transform="matrix(1.5929431,0,0,1.5929431,-131.11971,34.768474)" /><circle
     style="display:inline;fill:url(#radialGradient53);fill-rule:nonzero;stroke:#8e9dff;stroke-width:2.58835;stroke-linecap:square;stroke-linejoin:round;stroke-dasharray:none;stroke-dashoffset:0;stroke-opacity:0.585799;paint-order:markers fill stroke;stop-color:#000000"
     id="path48010-6-3"
     cx="278.56946"
     cy="-11.85172"
     r="60.547684"
     inkscape:label="circle-background"
     transform="matrix(1.557312,0,0,1.4946286,-116.51878,34.25991)" /><ellipse
     style="display:inline;fill:none;fill-opacity:0.892045;fill-rule:nonzero;stroke:#ffffff;stroke-width:2.46232;stroke-linecap:square;stroke-linejoin:round;stroke-dasharray:none;stroke-dashoffset:0;stroke-opacity:1;paint-order:markers fill stroke;stop-color:#000000"
     id="path48010-6-1"
     cx="316.10364"
     cy="17.407204"
     inkscape:label="circle-background"
     rx="87.892273"
     ry="88.42144" /></g>
<g
   inkscape:groupmode="layer"
   id="layer1"
   inkscape:label="logo"><path
     d="m 184.984,43.874 c -74.457,0 -135.88,56.866 -143.143,129.437 H 179.174 L 168.602,162.74 c -5.209,-5.212 -5.209,-13.643 0,-18.852 5.209,-5.209 13.646,-5.209 18.853,0 l 33.329,33.321 c 0,0 0,0.021 0.013,0.021 l 9.415,9.413 -9.415,9.418 -0.013,0.006 -31.11,31.111 c -2.606,2.605 -6.005,3.909 -9.425,3.909 -3.401,0 -6.818,-1.304 -9.427,-3.909 -5.207,-5.213 -5.207,-13.643 0,-18.85 l 8.353,-8.353 H 41.733 c 6.233,73.625 68.043,131.649 143.251,131.649 79.323,0 143.862,-64.539 143.862,-143.863 C 328.847,108.432 264.308,43.874 184.984,43.874 Z"
     id="path2"
     style="display:inline;fill:url(#linearGradient19);stroke:url(#radialGradient26);stroke-width:1.00014622;stroke-dasharray:4.00058508, 1.00014627;stroke-dashoffset:0"
     transform="matrix(-0.48858219,-0.61229232,-0.61229232,0.48858219,390.38659,205.1339)"
     inkscape:label="inner" /><path
     d="m 234.13245,81.129293 c 52.4053,25.602097 76.08343,86.746617 56.24178,140.321877 l -96.65952,-47.22205 11.07577,-3.80502 c 5.45842,-1.87727 8.35742,-7.81128 6.48227,-13.26868 -1.87515,-5.45737 -7.81338,-8.35845 -13.26936,-6.48261 l -34.91551,11.99222 c 0,0 -0.007,0.0148 -0.0165,0.01 l -9.86325,3.38783 3.3882,9.86606 0.007,0.009 11.19871,32.59414 c 0.93846,2.72957 2.8824,4.81611 5.28951,5.99208 2.39374,1.16944 5.24712,1.42658 7.97916,0.4902 5.45735,-1.87866 8.35601,-7.81196 6.48158,-13.26726 l -3.00693,-8.7513 96.73623,47.25954 c -29.70317,49.67689 -93.1587,69.2627 -146.09258,43.40237 C 79.359242,256.38201 56.126335,188.76554 83.401948,132.93469 110.67858,77.099962 178.30159,53.853679 234.13245,81.129293 Z"
     id="path2-1"
     style="fill:url(#linearGradient22);stroke:#ffffff;stroke-width:1.68345;stroke-dasharray:10.1006999, 1.68344998;stroke-dashoffset:0;stroke-opacity:0.58579898"
     inkscape:label="inner" /><path
     d="M 302.16729,90.471411 C 352.9334,153.99448 342.51297,246.58241 278.89278,297.27102 215.28068,347.95317 122.54746,337.55163 71.781352,274.02855 21.01525,210.50549 31.439409,117.91457 95.05151,67.232425 158.67892,16.545197 251.40766,26.956419 302.16729,90.471411 Z M 80.285143,267.24716 C 126.4651,325.03164 211.12979,334.5341 268.99827,288.4281 326.87048,242.31914 336.3775,157.78654 290.19754,100.00206 244.01808,42.218197 159.36892,32.733904 101.50044,78.839893 43.631971,124.94588 34.105682,209.4633 80.285143,267.24716 Z"
     id="path1-2"
     style="fill:#000000;stroke-width:2.6713;stroke-dasharray:none"
     inkscape:label="outter" /></g></svg>
