<?xml version="1.0" encoding="UTF-8" standalone="no"?>
<!-- Created with Inkscape (http://www.inkscape.org/) -->

<svg
   width="128"
   height="128"
   viewBox="0 0 33.866667 33.866666"
   version="1.1"
   id="svg1"
   xml:space="preserve"
   sodipodi:docname="zypline.svg"
   inkscape:version="1.4 (86a8ad7, 2024-10-11)"
   xmlns:inkscape="http://www.inkscape.org/namespaces/inkscape"
   xmlns:sodipodi="http://sodipodi.sourceforge.net/DTD/sodipodi-0.dtd"
   xmlns:xlink="http://www.w3.org/1999/xlink"
   xmlns="http://www.w3.org/2000/svg"
   xmlns:svg="http://www.w3.org/2000/svg"><sodipodi:namedview
     id="namedview1"
     pagecolor="#ffffff"
     bordercolor="#162ef4"
     borderopacity="0.42352941"
     inkscape:showpageshadow="2"
     inkscape:pageopacity="0.0"
     inkscape:pagecheckerboard="0"
     inkscape:deskcolor="#171717"
     inkscape:document-units="mm"
     inkscape:zoom="0.41580563"
     inkscape:cx="-1061.7942"
     inkscape:cy="97.401279"
     inkscape:window-width="2178"
     inkscape:window-height="1407"
     inkscape:window-x="2510"
     inkscape:window-y="356"
     inkscape:window-maximized="0"
     inkscape:current-layer="layer1" /><defs
     id="defs1"><linearGradient
       id="linearGradient7"
       inkscape:collect="always"><stop
         style="stop-color:#60e57c;stop-opacity:1;"
         offset="0"
         id="stop7" /><stop
         style="stop-color:#4fc968;stop-opacity:0;"
         offset="1"
         id="stop8" /></linearGradient><linearGradient
       id="linearGradient5"
       inkscape:collect="always"><stop
         style="stop-color:#11e2c7;stop-opacity:1;"
         offset="0"
         id="stop5" /><stop
         style="stop-color:#11e2c7;stop-opacity:0;"
         offset="1"
         id="stop6" /></linearGradient><linearGradient
       inkscape:collect="always"
       xlink:href="#linearGradient5"
       id="linearGradient6"
       x1="1.5296497"
       y1="17.285078"
       x2="29.89791"
       y2="17.285078"
       gradientUnits="userSpaceOnUse" /><radialGradient
       inkscape:collect="always"
       xlink:href="#linearGradient7"
       id="radialGradient8"
       cx="16.448622"
       cy="16.585358"
       fx="16.448622"
       fy="16.585358"
       r="15.042879"
       gradientUnits="userSpaceOnUse" /></defs><g
     inkscape:label="Layer 1"
     inkscape:groupmode="layer"
     id="layer1"><rect
       style="display:inline;opacity:1;fill:#001433;fill-opacity:1;stroke-width:1.7;stroke-dasharray:3.4, 1.7, 0.85, 1.7;paint-order:stroke fill markers"
       id="rect5"
       width="28.008926"
       height="28.008926"
       x="2.4184415"
       y="2.8683841"
       ry="0.92346597"
       rx="6.4116821" /><path
       style="color:#000000;font-style:normal;font-variant:normal;font-weight:normal;font-stretch:normal;font-size:medium;line-height:normal;font-family:sans-serif;font-variant-ligatures:normal;font-variant-position:normal;font-variant-caps:normal;font-variant-numeric:normal;font-variant-alternates:normal;font-feature-settings:normal;text-indent:0;text-align:start;text-decoration:none;text-decoration-line:none;text-decoration-style:solid;text-decoration-color:#000000;letter-spacing:normal;word-spacing:normal;text-transform:none;writing-mode:lr-tb;direction:ltr;text-orientation:mixed;dominant-baseline:auto;baseline-shift:baseline;text-anchor:start;white-space:normal;shape-padding:0;clip-rule:nonzero;display:inline;overflow:visible;visibility:visible;isolation:auto;mix-blend-mode:normal;color-interpolation:sRGB;color-interpolation-filters:linearRGB;solid-color:#000000;solid-opacity:1;vector-effect:none;fill:#000000;fill-opacity:1;fill-rule:nonzero;stroke:none;stroke-width:3.0243;stroke-linecap:butt;stroke-linejoin:miter;stroke-miterlimit:4;stroke-dasharray:none;stroke-dashoffset:0;stroke-opacity:1;color-rendering:auto;image-rendering:auto;shape-rendering:auto;text-rendering:auto;enable-background:accumulate"
       d="M 6.6282332,0.26486909 9.6525381,3.2891743 H 28.941326 c 0.863889,0 1.512156,0.6482599 1.512156,1.5121492 V 24.090118 l 3.024299,3.024299 V 4.8013235 c 0,-2.487035 -2.049415,-4.53645441 -4.536455,-4.53645441 z M 0.21044836,6.6826539 V 28.995747 c 0,2.48704 2.04941494,4.536455 4.53645444,4.536455 H 27.059996 L 24.035697,30.507903 H 4.7469028 c -0.8638893,0 -1.5121492,-0.64826 -1.5121492,-1.512156 V 9.7069587 Z"
       id="rect862" /><path
       style="color:#000000;font-style:normal;font-variant:normal;font-weight:normal;font-stretch:normal;font-size:medium;line-height:normal;font-family:sans-serif;font-variant-ligatures:normal;font-variant-position:normal;font-variant-caps:normal;font-variant-numeric:normal;font-variant-alternates:normal;font-feature-settings:normal;text-indent:0;text-align:start;text-decoration:none;text-decoration-line:none;text-decoration-style:solid;text-decoration-color:#000000;letter-spacing:normal;word-spacing:normal;text-transform:none;writing-mode:lr-tb;direction:ltr;text-orientation:mixed;dominant-baseline:auto;baseline-shift:baseline;text-anchor:start;white-space:normal;shape-padding:0;clip-rule:nonzero;display:inline;overflow:visible;visibility:visible;isolation:auto;mix-blend-mode:normal;color-interpolation:sRGB;color-interpolation-filters:linearRGB;solid-color:#000000;solid-opacity:1;vector-effect:none;fill:url(#radialGradient8);fill-opacity:1;fill-rule:nonzero;stroke:none;stroke-width:2.73506;stroke-linecap:butt;stroke-linejoin:miter;stroke-miterlimit:4;stroke-dasharray:none;stroke-dashoffset:0;stroke-opacity:1;color-rendering:auto;image-rendering:auto;shape-rendering:auto;text-rendering:auto;enable-background:accumulate"
       d="m 7.209753,1.5424779 2.7350707,2.735071 H 27.388897 c 0.78127,0 1.367539,0.5862624 1.367539,1.3675329 V 23.089162 l 2.735065,2.735064 V 5.6450818 c 0,-2.2491846 -1.853415,-4.1026039 -4.102604,-4.1026039 z M 1.4057434,7.3464877 V 27.525632 c 0,2.249189 1.8534158,4.102604 4.1026033,4.102604 H 25.687491 L 22.952426,28.893171 H 5.5083467 c -0.7812698,0 -1.3675324,-0.586263 -1.3675324,-1.367539 V 10.081559 Z"
       id="rect862-1" /><path
       style="display:inline;opacity:1;fill:#e28011;fill-opacity:1;stroke-width:1.58911;stroke-dasharray:3.17822, 1.58911, 0.794555, 1.58911;paint-order:stroke fill markers"
       id="path5"
       d="M 5.9223813,4.5142272 C 0.34639355,1.3303716 2.4510932,2.138326 3.3876345,2.9870109 3.658657,3.2326089 3.89775,3.5113024 4.1368118,3.7918517 c 0.4895501,0.5817837 0.9442258,1.195628 1.3956769,1.811815 0.3863242,0.5126325 0.8082435,0.9921552 1.2221004,1.4785642 0.2739066,0.3153647 0.5316867,0.6456413 0.832455,0.9317494 0.3095259,0.2979364 0.6118301,0.6045054 0.9174506,0.9071057 0.3146256,0.2975226 0.6167102,0.6105094 0.9302979,0.9090752 0.2545623,0.2636168 0.5484826,0.4702878 0.8418404,0.6784218 0.827426,-0.07623 2.359134,1.640311 3.554791,2.186565 0.223004,0.101883 0.453595,0.188163 0.683544,0.269421 0.263641,0.07062 0.533701,0.138556 0.807223,0.139758 0.125991,5.66e-4 0.336364,-0.02679 0.459673,-0.04057 0.513564,-0.0801 1.012391,-0.243447 1.505895,-0.412812 0.452678,-0.145435 0.881237,-0.36033 1.325612,-0.530779 0.350569,-0.160255 0.701244,-0.322551 1.073156,-0.414816 0.31685,-0.05168 0.641371,-0.07895 0.960705,-0.04393 0.317723,0.01594 0.631069,0.0772 0.92947,0.196021 1.002368,0.713476 2.272312,1.416642 -2.574137,-1.57987 -0.05241,-0.0324 0.102121,0.06983 0.15109,0.108016 0.13294,0.103659 0.137291,0.118967 0.254645,0.24628 0.242377,0.298726 0.378782,0.670032 0.486111,1.044694 0.10418,0.447671 0.119639,0.910505 0.110077,1.36967 -0.01182,0.462467 -0.113551,0.905109 -0.246732,1.341613 -0.162149,0.426745 -0.339512,0.851962 -0.579317,1.234806 -0.200766,0.341366 -0.48698,0.595252 -0.779846,0.838393 -0.384843,0.293528 -0.773183,0.582538 -1.155919,0.879696 -0.453932,0.335583 -0.868339,0.722223 -1.270785,1.125759 -0.362828,0.342701 -0.632937,0.762145 -0.85107,1.222175 -0.176777,0.436409 -0.268448,0.903289 -0.286871,1.377598 -0.0074,0.405647 0.07723,0.802093 0.256772,1.157555 0.119874,0.189553 0.260643,0.409162 0.449649,0.528662 1.04147,0.658476 2.08819,1.307202 3.132284,1.960803 0.343462,0.188333 0.726599,0.264984 1.092021,0.387713 0.522625,0.122461 1.055436,0.18426 1.586347,0.248309 0.454086,0.0353 0.909952,0.06873 1.364504,0.03209 0.553939,-0.03073 1.106047,-0.08607 1.660036,-0.116303 0.549701,-0.03195 1.09936,-0.02954 1.647679,0.02295 0.596596,0.0571 1.191635,0.163207 1.772389,0.322132 0.258419,0.09542 0.545545,0.07946 0.798178,0.192827 0.05488,0.02462 0.231458,0.133817 0.283593,0.165423 -0.95914,-0.592049 -1.918276,-1.184099 -2.877415,-1.77615 0.123612,0.08914 0.158868,0.103431 0.26064,0.220001 0.122024,0.139764 0.214215,0.306868 0.310185,0.467301 0.169065,0.311904 0.303705,0.645199 0.431599,0.97885 0.09907,0.261999 0.185642,0.527285 0.241499,0.804 0.06677,0.346838 0.08462,0.700709 0.114265,1.052489 0.03588,0.313992 0.05881,0.628988 0.07452,0.944811 0.01725,0.335215 0.0021,0.671017 0.01142,1.006359 -0.0017,0.262815 -0.01879,0.526573 -0.05843,0.785989 0,0 3.126392,1.784867 3.126392,1.784867 v 0 c 0.03516,-0.280637 0.03323,-0.565158 0.06333,-0.846661 0.0093,-0.338623 -0.0065,-0.677323 -0.0041,-1.016055 -0.0036,-0.324417 -0.01713,-0.648748 -0.06093,-0.970098 -0.04263,-0.35446 -0.05993,-0.712209 -0.107466,-1.066207 -0.02588,-0.303287 -0.08333,-0.603202 -0.205067,-0.880142 -0.123726,-0.355325 -0.286169,-0.692218 -0.426194,-1.040366 -0.828872,-1.690887 -1.328661,-1.407945 -3.645479,-2.810938 -0.35197,-0.139028 -0.727921,-0.16802 -1.091029,-0.263563 -0.592906,-0.117521 -1.190096,-0.212143 -1.790852,-0.26796 -0.557788,-0.02801 -1.115909,-0.03278 -1.673168,0.01412 -0.556503,0.03773 -1.112523,0.09144 -1.670536,0.09434 -0.44532,-0.0098 -0.891499,-0.01698 -1.334577,-0.07121 -0.523034,-0.05985 -1.049012,-0.134403 -1.551704,-0.307891 -0.378932,-0.121866 -0.753309,-0.261572 -1.094377,-0.481977 0.969341,0.610865 1.938682,1.22173 2.908023,1.832595 -0.102365,-0.07195 -0.213636,-0.133334 -0.308481,-0.217029 -0.426872,-0.376684 0.227125,0.172807 -0.20524,-0.186949 -0.0085,-0.0117 -0.17301,-0.235304 -0.179449,-0.247099 -0.118277,-0.216652 -0.171604,-0.477015 -0.191432,-0.723955 -0.0028,-0.06718 -0.01031,-0.13433 -0.0083,-0.201538 0.01068,-0.352463 0.108892,-0.697848 0.216515,-1.027225 0.185581,-0.426801 0.450676,-0.795779 0.769329,-1.118306 0.383604,-0.396726 0.796253,-0.757573 1.231107,-1.087047 0.401128,-0.290438 0.816048,-0.557952 1.202946,-0.871084 0.320874,-0.271653 0.625397,-0.564808 0.835192,-0.948713 0.244886,-0.418139 0.444514,-0.863013 0.608341,-1.32528 0.07911,-0.243168 0.174147,-0.491154 0.228504,-0.742624 0.04898,-0.226644 0.04204,-0.463829 0.07166,-0.693176 0.02116,-0.487275 0.02367,-0.97495 -0.05567,-1.457569 C 22.967455,12.887037 22.833871,12.48264 22.63274,12.11222 22.53216,11.957718 22.421092,11.754365 22.266126,11.65423 21.586348,11.214972 20.030313,9.9340529 18.793924,9.5418714 18.470088,9.4675322 18.144062,9.420068 17.812045,9.4204091 c -0.344317,0.012846 -0.691613,0.029378 -1.02345,0.1397853 -0.362879,0.1328491 -0.710158,0.3068332 -1.06677,0.4573886 -0.427911,0.184915 -0.853489,0.378865 -1.294015,0.526487 -0.479612,0.156388 -0.968408,0.298008 -1.471091,0.326486 -0.405281,0.0011 -0.805008,-0.06417 -1.186033,-0.218997 -0.158801,-0.06571 -0.271084,-0.109411 -0.427453,-0.185846 -1.156248,-0.5651814 -2.8145051,-2.0397392 2.194923,1.406545 -0.298635,-0.183571 -0.592508,-0.385289 -0.857394,-0.621633 -0.09767,-0.08699 -0.200379,-0.167596 -0.294413,-0.259156 -0.05325,-0.05185 -0.100109,-0.110962 -0.152358,-0.163991 -0.164694,-0.16715 -0.342218,-0.319274 -0.511428,-0.480881 C 11.425604,10.044617 11.127691,9.7448433 10.830937,9.4426953 10.695518,9.3105789 10.542622,9.1966592 10.413893,9.0570098 10.255645,8.885337 10.11601,8.6920371 9.9514661,8.5264734 9.5226389,8.0410901 9.0871593,7.5625585 8.6790396,7.0563527 8.2156894,6.4381904 7.7651881,5.8084103 7.2681245,5.2206243 5.9643762,3.5143116 5.6325617,3.5657177 3.1538217,2.0933883 Z" /><path
       style="display:inline;fill:url(#linearGradient6);fill-opacity:1;stroke-width:1.58911;stroke-dasharray:3.17822, 1.58911, 0.794555, 1.58911;paint-order:stroke fill markers"
       id="path5-1"
       d="M 5.2419248,4.6341367 C -0.33406259,1.4502811 1.7706368,2.2582355 2.7071778,3.1069204 c 0.271023,0.245598 0.510116,0.5242915 0.749178,0.8048408 0.48955,0.5817837 0.944226,1.195628 1.395677,1.811815 0.386324,0.5126325 0.808243,0.9921552 1.2221,1.4785642 0.273907,0.3153647 0.531687,0.6456413 0.832455,0.9317494 0.309526,0.2979364 0.61183,0.6045054 0.917451,0.9071057 0.314625,0.2975226 0.61671,0.6105094 0.930298,0.9090752 0.254562,0.2636173 0.548482,0.4702883 0.84184,0.6784223 0.8274262,-0.07623 2.3591342,1.640311 3.5547912,2.186565 0.223004,0.101883 0.453595,0.188163 0.683544,0.269421 0.263641,0.07062 0.533701,0.138556 0.807223,0.139758 0.125991,5.66e-4 0.336364,-0.02679 0.459673,-0.04057 0.513564,-0.0801 1.012391,-0.243447 1.505895,-0.412812 0.452678,-0.145435 0.881237,-0.36033 1.325612,-0.530779 0.350569,-0.160255 0.701244,-0.322551 1.073156,-0.414816 0.31685,-0.05168 0.641371,-0.07895 0.960705,-0.04393 0.317723,0.01594 0.631069,0.0772 0.92947,0.196021 1.002368,0.713476 2.272312,1.416642 -2.574137,-1.57987 -0.05241,-0.0324 0.102121,0.06983 0.15109,0.108016 0.13294,0.103659 0.137291,0.118967 0.254645,0.24628 0.242377,0.298726 0.378782,0.670032 0.486111,1.044694 0.10418,0.447671 0.119639,0.910505 0.110077,1.36967 -0.01182,0.462467 -0.113551,0.905109 -0.246732,1.341613 -0.162149,0.426745 -0.339512,0.851962 -0.579317,1.234806 -0.200766,0.341366 -0.48698,0.595252 -0.779846,0.838393 -0.384843,0.293528 -0.773183,0.582538 -1.155919,0.879696 -0.453932,0.335583 -0.868339,0.722223 -1.270785,1.125759 -0.362828,0.342701 -0.632937,0.762145 -0.85107,1.222175 -0.176777,0.436409 -0.268448,0.903289 -0.286871,1.377598 -0.0074,0.405647 0.07723,0.802093 0.256772,1.157555 0.119874,0.189553 0.260643,0.409162 0.449649,0.528662 1.04147,0.658476 2.08819,1.307202 3.132284,1.960803 0.343462,0.188333 0.726599,0.264984 1.092021,0.387713 0.522625,0.122461 1.055436,0.18426 1.586347,0.248309 0.454086,0.0353 0.909952,0.06873 1.364504,0.03209 0.553939,-0.03073 1.106047,-0.08607 1.660036,-0.116303 0.549701,-0.03195 1.09936,-0.02954 1.647679,0.02295 0.596596,0.0571 1.191635,0.163207 1.772389,0.322132 0.258419,0.09542 0.545545,0.07946 0.798178,0.192827 0.05488,0.02462 0.231458,0.133817 0.283593,0.165423 -0.95914,-0.592049 -1.918276,-1.184099 -2.877415,-1.77615 0.123612,0.08914 0.158868,0.103431 0.26064,0.220001 0.122024,0.139764 0.214215,0.306868 0.310185,0.467301 0.169065,0.311904 0.303705,0.645199 0.431599,0.97885 0.09907,0.261999 0.185642,0.527285 0.241499,0.804 0.06677,0.346838 0.08462,0.700709 0.114265,1.052489 0.03588,0.313992 0.05881,0.628988 0.07452,0.944811 0.01725,0.335215 0.0021,0.671017 0.01142,1.006359 -0.0017,0.262815 -0.01879,0.526573 -0.05843,0.785989 0,0 3.126392,1.784867 3.126392,1.784867 v 0 c 0.03516,-0.280637 0.03323,-0.565158 0.06333,-0.846661 0.0093,-0.338623 -0.0065,-0.677323 -0.0041,-1.016055 -0.0036,-0.324417 -0.01713,-0.648748 -0.06093,-0.970098 -0.04263,-0.35446 -0.05993,-0.712209 -0.107466,-1.066207 -0.02588,-0.303287 -0.08333,-0.603202 -0.205067,-0.880142 -0.123726,-0.355325 -0.286169,-0.692218 -0.426194,-1.040366 -0.828872,-1.690887 -1.328661,-1.407945 -3.645479,-2.810938 -0.35197,-0.139028 -0.727921,-0.16802 -1.091029,-0.263563 -0.592906,-0.117521 -1.190096,-0.212143 -1.790852,-0.26796 -0.557788,-0.02801 -1.115909,-0.03278 -1.673168,0.01412 -0.556503,0.03773 -1.112523,0.09144 -1.670536,0.09434 -0.44532,-0.0098 -0.891499,-0.01698 -1.334577,-0.07121 -0.523034,-0.05985 -1.049012,-0.134403 -1.551704,-0.307891 -0.378932,-0.121866 -0.753309,-0.261572 -1.094377,-0.481977 0.969341,0.610865 1.938682,1.22173 2.908023,1.832595 -0.102365,-0.07195 -0.213636,-0.133334 -0.308481,-0.217029 -0.426872,-0.376684 0.227125,0.172807 -0.20524,-0.186949 -0.0085,-0.0117 -0.17301,-0.235304 -0.179449,-0.247099 -0.118277,-0.216652 -0.171604,-0.477015 -0.191432,-0.723955 -0.0028,-0.06718 -0.01031,-0.13433 -0.0083,-0.201538 0.01068,-0.352463 0.108892,-0.697848 0.216515,-1.027225 0.185581,-0.426801 0.450676,-0.795779 0.769329,-1.118306 0.383604,-0.396726 0.796253,-0.757573 1.231107,-1.087047 0.401128,-0.290438 0.816048,-0.557952 1.202946,-0.871084 0.320874,-0.271653 0.625397,-0.564808 0.835192,-0.948713 0.244886,-0.418139 0.444514,-0.863013 0.608341,-1.32528 0.07911,-0.243168 0.174147,-0.491154 0.228504,-0.742624 0.04898,-0.226644 0.04204,-0.463829 0.07166,-0.693176 0.02116,-0.487275 0.02367,-0.97495 -0.05567,-1.457569 -0.07552,-0.420305 -0.2091,-0.824702 -0.410231,-1.195122 -0.10058,-0.154502 -0.211648,-0.357855 -0.366614,-0.45799 -0.679778,-0.439258 -2.235813,-1.720178 -3.472202,-2.1123591 -0.323836,-0.074339 -0.649862,-0.1218034 -0.981879,-0.1214623 -0.344317,0.012846 -0.691613,0.029378 -1.02345,0.1397853 -0.362879,0.1328491 -0.710158,0.3068332 -1.06677,0.4573891 -0.427911,0.184915 -0.853489,0.378865 -1.294015,0.526487 -0.479612,0.156388 -0.968408,0.298008 -1.471091,0.326486 -0.405281,0.0011 -0.805008,-0.06417 -1.186033,-0.218997 -0.158801,-0.06571 -0.271084,-0.109411 -0.427453,-0.185846 -1.1562482,-0.565182 -2.8145052,-2.0397397 2.194923,1.406545 -0.298635,-0.183571 -0.592508,-0.385289 -0.857394,-0.621633 -0.09767,-0.08699 -0.200379,-0.167596 -0.294413,-0.259156 -0.05325,-0.05185 -0.100109,-0.110962 -0.152358,-0.163991 -0.164694,-0.16715 -0.342218,-0.319274 -0.511428,-0.480881 C 10.745148,10.164527 10.447235,9.8647528 10.150481,9.5626048 10.015062,9.4304884 9.8621658,9.3165687 9.7334368,9.1769193 9.5751888,9.0052465 9.4355538,8.8119466 9.2710098,8.6463829 8.8421828,8.1609996 8.4067028,7.682468 7.9985838,7.1762622 7.5352328,6.5580999 7.0847318,5.9283198 6.5876688,5.3405338 5.2839198,3.6342211 4.9521058,3.6856272 2.4733658,2.2132978 Z" /></g><style
     type="text/css"
     id="style1">
	.st0{fill:#000000;}
</style></svg>
